<svg xmlns="http://www.w3.org/2000/svg" width="960" height="420" viewBox="0 0 960 420" role="img" aria-labelledby="title desc">
  <title id="title">Table State Card preview</title>
  <desc id="desc">Compact Home Assistant table card with toggles, labels, values, and sparklines.</desc>
  <rect width="960" height="420" fill="#111827"/>
  <rect x="80" y="64" width="800" height="292" rx="16" fill="#1f2937" stroke="#374151" stroke-width="2"/>
  <text x="112" y="116" fill="#f9fafb" font-family="Arial, sans-serif" font-size="34">Floor Control</text>
  <g font-family="Arial, sans-serif" font-size="24" fill="#e5e7eb">
    <g transform="translate(112 156)">
      <circle cx="20" cy="28" r="20" fill="#4b5563" stroke="#6b7280" stroke-width="2"/>
      <text x="72" y="37">F103 A103</text>
      <text x="312" y="37" fill="#f9fafb" text-anchor="end">0.32 A</text>
      <path d="M420 31 C450 10 474 47 505 23 S560 36 590 19 S650 41 688 28" fill="none" stroke="#06b6d4" stroke-width="4"/>
      <line x1="0" y1="64" x2="736" y2="64" stroke="#374151"/>
    </g>
    <g transform="translate(112 236)">
      <circle cx="20" cy="28" r="20" fill="#facc15" stroke="#fde047" stroke-width="2"/>
      <text x="72" y="37">F104 A104</text>
      <text x="312" y="37" fill="#f9fafb" text-anchor="end">0.41 A</text>
      <path d="M420 34 C456 20 480 33 510 31 S560 16 596 26 S640 46 688 19" fill="none" stroke="#06b6d4" stroke-width="4"/>
      <line x1="0" y1="64" x2="736" y2="64" stroke="#374151"/>
    </g>
  </g>
</svg>
